<svg width="24" height="24" viewBox="0 0 24 24" fill="none" xmlns="http://www.w3.org/2000/svg">
<path d="M10 14.65V9.35001L15 12L10 14.65ZM17.77 10.32C17 10 16.57 9.82001 16.57 9.82001L18 9.06001C19.84 8.10001 20.53 5.83001 19.56 4.00001C18.59 2.17001 16.32 1.47001 14.49 2.44001L6 6.94001C4.71 7.62001 3.93 8.98001 4 10.43C4.07 11.85 4.93 13.1 6.22 13.68C6.25 13.69 7.42 14.18 7.42 14.18L6 14.93C4.17 15.9 3.47 18.17 4.44 20C5.41 21.83 7.68 22.53 9.51 21.56L18.01 17.06C19.3 16.38 20.07 15.02 20 13.57C19.93 12.15 19.06 10.89 17.77 10.32ZM17.54 16.18L9.04 20.68C7.7 21.39 6.03 20.88 5.32 19.54C4.61 18.2 5.12 16.53 6.46 15.82L8.5 14.74V13.53L7.81 13.25L6.7 12.79C5.71 12.38 5.05 11.44 5 10.38C4.95 9.32001 5.52 8.32001 6.46 7.82001L14.96 3.32001C16.3 2.61001 17.97 3.12001 18.68 4.46001C19.39 5.80001 18.88 7.47001 17.54 8.18001L15.5 9.26001V10.47L17.3 11.21C18.29 11.62 18.95 12.56 19 13.62C19.05 14.68 18.48 15.68 17.54 16.18Z" fill="black"/>
</svg>
