<svg width="24" height="24" viewBox="0 0 24 24" fill="none" xmlns="http://www.w3.org/2000/svg">
<path d="M14.97 16.95L10 13.87V7H12V12.76L16.03 15.25L14.97 16.95ZM22 12C22 17.51 17.51 22 12 22C6.49 22 2 17.51 2 12H3C3 16.96 7.04 21 12 21C16.96 21 21 16.96 21 12C21 7.04 16.96 3 12 3C8.81 3 5.92 4.64 4.28 7.38C4.17 7.56 4.06 7.75 3.97 7.94C3.96 7.96 3.95 7.98 3.94 8H8V9H1.96V3H2.96V7.74C3 7.65 3.03 7.57 3.07 7.49C3.18 7.27 3.3 7.07 3.42 6.86C5.22 3.86 8.51 2 12 2C17.51 2 22 6.49 22 12Z" fill="black"/>
</svg>
